<svg xmlns="http://www.w3.org/2000/svg" width="100%" height="100%" viewBox="0 0 360 220">
  <defs>
    <radialGradient id="bg" cx="50%" cy="45%" r="75%">
      <stop offset="0%" stop-color="#14532d"/>
      <stop offset="100%" stop-color="#020617"/>
    </radialGradient>
    <radialGradient id="leaf" cx="40%" cy="30%" r="75%">
      <stop offset="0%" stop-color="#dcfce7"/>
      <stop offset="45%" stop-color="#22c55e"/>
      <stop offset="100%" stop-color="#14532d"/>
    </radialGradient>
    <style>
      .body{fill:url(#leaf);stroke:#ecfdf5;stroke-width:2.3}
      .vein{fill:none;stroke:#f0fdf4;stroke-width:2;stroke-linecap:round}
      .root{stroke:#86efac;stroke-width:1.8;fill:none;stroke-linecap:round}
      .label{font-family:Arial,sans-serif;font-size:21px;font-weight:900;fill:#fff}
    </style>
  </defs>
  <rect width="360" height="220" rx="18" fill="url(#bg)"/>
  <path d="M180 42 C116 72 88 128 116 168 C145 205 215 205 244 168 C272 128 244 72 180 42Z" class="body"/>
  <path d="M180 58 C172 94 172 135 180 176" class="vein"/>
  <path d="M180 82 C150 96 130 118 118 148" class="vein"/>
  <path d="M180 82 C210 96 230 118 242 148" class="vein"/>
  <path d="M146 178 C133 193 124 202 112 211" class="root"/>
  <path d="M168 184 C160 200 153 208 144 215" class="root"/>
  <path d="M194 184 C202 200 210 208 220 215" class="root"/>
  <path d="M214 178 C229 193 238 202 250 211" class="root"/>
  <text x="180" y="35" text-anchor="middle" class="label">Q</text>
</svg>
