<svg width="100%" height="100%" viewBox="0 0 420 260" xmlns="http://www.w3.org/2000/svg" role="img" aria-label="Plant Tissue Culture">
  <defs>
    <marker id="arrow" markerWidth="8" markerHeight="8" refX="7" refY="3.5" orient="auto">
      <path d="M0,0 L0,7 L8,3.5 z" fill="#0f172a"/>
    </marker>
    <marker id="arrowBlue" markerWidth="8" markerHeight="8" refX="7" refY="3.5" orient="auto">
      <path d="M0,0 L0,7 L8,3.5 z" fill="#2563eb"/>
    </marker>
  </defs>
  <rect width="420" height="260" rx="18" fill="#f8fafc"/>
  <rect x="14" y="14" width="392" height="232" rx="14" fill="#ffffff" stroke="#cbd5e1" stroke-width="1.5"/>
  <text x="210.0" y="38" text-anchor="middle" font-family="Arial, sans-serif" font-size="15" font-weight="700" fill="#0f172a">Plant Tissue Culture</text>
  
  <path d="M70 105 C88 89,105 110,88 128 C106 132,95 154,76 143 C62 160,47 130,64 122 C46 108,58 92,70 105" fill="#dcfce7" stroke="#16a34a" stroke-width="2"/>
  <text x="78" y="178" text-anchor="middle" font-size="11" fill="#0f172a">Explant</text>
  <line x1="118" y1="125" x2="160" y2="125" stroke="#2563eb" stroke-width="2" marker-end="url(#arrowBlue)"/>
  <circle cx="190" cy="125" r="28" fill="#fef3c7" stroke="#ea580c" stroke-width="2"/>
  <text x="190" y="178" text-anchor="middle" font-size="11" fill="#0f172a">Callus</text>
  <line x1="222" y1="125" x2="265" y2="125" stroke="#2563eb" stroke-width="2" marker-end="url(#arrowBlue)"/>
  <path d="M310 165 L310 100 M310 127 C285 110,282 92,306 104 M310 132 C338 114,343 94,318 106" stroke="#16a34a" stroke-width="3" fill="none"/>
  <path d="M288 172 H334 L328 212 H294 Z" fill="none" stroke="#0284c7" stroke-width="2"/>
  <text x="310" y="230" text-anchor="middle" font-size="11" fill="#0f172a">Plantlet</text>

</svg>