<svg width="100%" height="100%" viewBox="0 0 420 260" xmlns="http://www.w3.org/2000/svg" role="img" aria-label="Stomata and Guard Cells">
  <defs>
    <marker id="arrow" markerWidth="8" markerHeight="8" refX="7" refY="3.5" orient="auto">
      <path d="M0,0 L0,7 L8,3.5 z" fill="#0f172a"/>
    </marker>
    <marker id="arrowBlue" markerWidth="8" markerHeight="8" refX="7" refY="3.5" orient="auto">
      <path d="M0,0 L0,7 L8,3.5 z" fill="#2563eb"/>
    </marker>
  </defs>
  <rect width="420" height="260" rx="18" fill="#f8fafc"/>
  <rect x="14" y="14" width="392" height="232" rx="14" fill="#ffffff" stroke="#cbd5e1" stroke-width="1.5"/>
  <text x="210.0" y="38" text-anchor="middle" font-family="Arial, sans-serif" font-size="15" font-weight="700" fill="#0f172a">Stomata and Guard Cells</text>
  
  <ellipse cx="168" cy="130" rx="38" ry="70" fill="#dcfce7" stroke="#16a34a" stroke-width="2.7" transform="rotate(-18 168 130)"/>
  <ellipse cx="252" cy="130" rx="38" ry="70" fill="#dcfce7" stroke="#16a34a" stroke-width="2.7" transform="rotate(18 252 130)"/>
  <ellipse cx="210" cy="130" rx="18" ry="64" fill="#ffffff" stroke="#0f172a" stroke-width="1.8"/>
  <g fill="#16a34a"><circle cx="155" cy="112" r="5"/><circle cx="184" cy="150" r="5"/><circle cx="265" cy="112" r="5"/><circle cx="236" cy="150" r="5"/></g>
  <line x1="210" y1="65" x2="210" y2="42" stroke="#2563eb" stroke-width="2" marker-end="url(#arrowBlue)"/>
  <line x1="210" y1="195" x2="210" y2="220" stroke="#2563eb" stroke-width="2" marker-end="url(#arrowBlue)"/>
  <text x="210" y="34" text-anchor="middle" font-size="11" fill="#2563eb" font-family="Noto Sans Bengali, Arial, sans-serif">CO₂ / O₂</text>
  <text x="210" y="238" text-anchor="middle" font-size="11" fill="#2563eb" font-family="Noto Sans Bengali, Arial, sans-serif">H₂O vapor</text>
  <text x="210" y="132" text-anchor="middle" font-size="11" fill="#0f172a" font-family="Noto Sans Bengali, Arial, sans-serif">Pore</text>

</svg>