<svg width="100%" height="100%" viewBox="0 0 420 260" xmlns="http://www.w3.org/2000/svg" role="img" aria-label="Endodermis and Casparian Strip">
  <defs>
    <marker id="arrow" markerWidth="8" markerHeight="8" refX="7" refY="3.5" orient="auto">
      <path d="M0,0 L0,7 L8,3.5 z" fill="#0f172a"/>
    </marker>
    <marker id="arrowBlue" markerWidth="8" markerHeight="8" refX="7" refY="3.5" orient="auto">
      <path d="M0,0 L0,7 L8,3.5 z" fill="#2563eb"/>
    </marker>
  </defs>
  <rect width="420" height="260" rx="18" fill="#f8fafc"/>
  <rect x="14" y="14" width="392" height="232" rx="14" fill="#ffffff" stroke="#cbd5e1" stroke-width="1.5"/>
  <text x="210.0" y="38" text-anchor="middle" font-family="Arial, sans-serif" font-size="15" font-weight="700" fill="#0f172a">Endodermis and Casparian Strip</text>
  
  <g stroke="#0f172a" stroke-width="1.8" fill="#e0f2fe">
    <rect x="65" y="95" width="48" height="60"/><rect x="113" y="95" width="48" height="60"/>
    <rect x="161" y="95" width="48" height="60"/><rect x="209" y="95" width="48" height="60"/>
    <rect x="257" y="95" width="48" height="60"/><rect x="305" y="95" width="48" height="60"/>
  </g>
  <g stroke="#ea580c" stroke-width="4">
    <line x1="113" y1="95" x2="113" y2="155"/><line x1="161" y1="95" x2="161" y2="155"/>
    <line x1="257" y1="95" x2="257" y2="155"/><line x1="305" y1="95" x2="305" y2="155"/>
  </g>
  <rect x="209" y="95" width="48" height="60" fill="#dcfce7" stroke="#16a34a" stroke-width="2"/>
  <text x="233" y="129" text-anchor="middle" font-size="10" fill="#166534">Passage cell</text>
  <text x="210" y="75" text-anchor="middle" font-size="12" fill="#ea580c">Casparian strip</text>

</svg>