<svg width="100%" height="100%" viewBox="0 0 420 260" xmlns="http://www.w3.org/2000/svg" role="img" aria-label="Bacteriophage">
  <defs>
    <marker id="arrow" markerWidth="8" markerHeight="8" refX="7" refY="3.5" orient="auto">
      <path d="M0,0 L0,7 L8,3.5 z" fill="#0f172a"/>
    </marker>
    <marker id="arrowBlue" markerWidth="8" markerHeight="8" refX="7" refY="3.5" orient="auto">
      <path d="M0,0 L0,7 L8,3.5 z" fill="#2563eb"/>
    </marker>
  </defs>
  <rect width="420" height="260" rx="18" fill="#f8fafc"/>
  <rect x="14" y="14" width="392" height="232" rx="14" fill="#ffffff" stroke="#cbd5e1" stroke-width="1.5"/>
  <text x="210.0" y="38" text-anchor="middle" font-family="Arial, sans-serif" font-size="15" font-weight="700" fill="#0f172a">Bacteriophage</text>
  
  <polygon points="210,55 250,78 250,122 210,145 170,122 170,78" fill="#e0f2fe" stroke="#0284c7" stroke-width="2.5"/>
  <path d="M188 98 C204 72,222 123,238 98" fill="none" stroke="#ea580c" stroke-width="2.2"/>
  <rect x="198" y="145" width="24" height="52" fill="#dbeafe" stroke="#2563eb" stroke-width="2"/>
  <line x1="178" y1="197" x2="242" y2="197" stroke="#2563eb" stroke-width="2"/>
  <line x1="198" y1="197" x2="162" y2="226" stroke="#2563eb" stroke-width="2"/>
  <line x1="222" y1="197" x2="258" y2="226" stroke="#2563eb" stroke-width="2"/>
  <text x="258" y="99" font-size="11" fill="#ea580c">DNA in head</text>
  <text x="250" y="178" font-size="11" fill="#0f172a">Tail</text>

</svg>