<svg width="100%" height="100%" viewBox="0 0 420 260" xmlns="http://www.w3.org/2000/svg" role="img" aria-label="Recombinant Plasmid">
  <defs>
    <marker id="arrow" markerWidth="8" markerHeight="8" refX="7" refY="3.5" orient="auto">
      <path d="M0,0 L0,7 L8,3.5 z" fill="#0f172a"/>
    </marker>
    <marker id="arrowBlue" markerWidth="8" markerHeight="8" refX="7" refY="3.5" orient="auto">
      <path d="M0,0 L0,7 L8,3.5 z" fill="#2563eb"/>
    </marker>
  </defs>
  <rect width="420" height="260" rx="18" fill="#f8fafc"/>
  <rect x="14" y="14" width="392" height="232" rx="14" fill="#ffffff" stroke="#cbd5e1" stroke-width="1.5"/>
  <text x="210.0" y="38" text-anchor="middle" font-family="Arial, sans-serif" font-size="15" font-weight="700" fill="#0f172a">Recombinant Plasmid</text>
  
  <ellipse cx="88" cy="130" rx="54" ry="34" fill="#e0f2fe" stroke="#0284c7" stroke-width="2"/>
  <circle cx="88" cy="130" r="22" fill="none" stroke="#2563eb" stroke-width="3.5"/>
  <path d="M88 108 A22 22 0 0 1 110 130" stroke="#ea580c" stroke-width="6" fill="none"/>
  <text x="88" y="178" text-anchor="middle" font-size="11" fill="#0f172a" font-family="Noto Sans Bengali, Arial, sans-serif">Vector + gene</text>
  <line x1="150" y1="130" x2="238" y2="130" stroke="#2563eb" stroke-width="2.5" marker-end="url(#arrowBlue)"/>
  <text x="194" y="112" text-anchor="middle" font-size="11" fill="#2563eb" font-family="Noto Sans Bengali, Arial, sans-serif">Transformation</text>
  <ellipse cx="310" cy="130" rx="58" ry="36" fill="#dcfce7" stroke="#16a34a" stroke-width="2"/>
  <circle cx="310" cy="130" r="22" fill="none" stroke="#16a34a" stroke-width="3.5"/>
  <path d="M310 108 A22 22 0 0 1 332 130" stroke="#ea580c" stroke-width="6" fill="none"/>
  <text x="310" y="178" text-anchor="middle" font-size="11" fill="#0f172a" font-family="Noto Sans Bengali, Arial, sans-serif">E. coli cell</text>

</svg>