<svg width="100%" height="100%" viewBox="0 0 420 260" xmlns="http://www.w3.org/2000/svg" role="img" aria-label="tRNA Cloverleaf Model">
  <defs>
    <marker id="arrow" markerWidth="8" markerHeight="8" refX="7" refY="3.5" orient="auto">
      <path d="M0,0 L0,7 L8,3.5 z" fill="#0f172a"/>
    </marker>
    <marker id="arrowBlue" markerWidth="8" markerHeight="8" refX="7" refY="3.5" orient="auto">
      <path d="M0,0 L0,7 L8,3.5 z" fill="#2563eb"/>
    </marker>
  </defs>
  <rect width="420" height="260" rx="18" fill="#f8fafc"/>
  <rect x="14" y="14" width="392" height="232" rx="14" fill="#ffffff" stroke="#cbd5e1" stroke-width="1.5"/>
  <text x="210.0" y="38" text-anchor="middle" font-family="Arial, sans-serif" font-size="15" font-weight="700" fill="#0f172a">tRNA Cloverleaf Model</text>
  
  <path d="M210 68
           C180 50,158 73,170 100
           C145 112,148 145,180 150
           C172 188,206 205,220 170
           C250 203,284 184,266 150
           C298 144,298 112,270 100
           C284 72,240 50,210 68
           M210 68 L210 170" fill="none" stroke="#2563eb" stroke-width="3.2" stroke-linecap="round"/>
  <circle cx="210" cy="68" r="7" fill="#ea580c"/>
  <text x="210" y="57" text-anchor="middle" font-size="12" fill="#ea580c" font-family="Noto Sans Bengali, Arial, sans-serif">Amino acid site</text>
  <text x="210" y="163" text-anchor="middle" font-size="11" fill="#16a34a" font-family="Noto Sans Bengali, Arial, sans-serif">Anticodon loop</text>

</svg>