<svg width="100%" height="100%" viewBox="0 0 420 260" xmlns="http://www.w3.org/2000/svg" role="img" aria-label="Meristem Tissue">
  <defs>
    <marker id="arrow" markerWidth="8" markerHeight="8" refX="7" refY="3.5" orient="auto">
      <path d="M0,0 L0,7 L8,3.5 z" fill="#0f172a"/>
    </marker>
    <marker id="arrowBlue" markerWidth="8" markerHeight="8" refX="7" refY="3.5" orient="auto">
      <path d="M0,0 L0,7 L8,3.5 z" fill="#2563eb"/>
    </marker>
  </defs>
  <rect width="420" height="260" rx="18" fill="#f8fafc"/>
  <rect x="14" y="14" width="392" height="232" rx="14" fill="#ffffff" stroke="#cbd5e1" stroke-width="1.5"/>
  <text x="210.0" y="38" text-anchor="middle" font-family="Arial, sans-serif" font-size="15" font-weight="700" fill="#0f172a">Meristem Tissue</text>
  
  <g fill="#dcfce7" stroke="#16a34a" stroke-width="1.7">
    <rect x="125" y="76" width="34" height="34"/><rect x="159" y="76" width="34" height="34"/><rect x="193" y="76" width="34" height="34"/><rect x="227" y="76" width="34" height="34"/>
    <rect x="125" y="110" width="34" height="34"/><rect x="159" y="110" width="34" height="34"/><rect x="193" y="110" width="34" height="34"/><rect x="227" y="110" width="34" height="34"/>
    <rect x="125" y="144" width="34" height="34"/><rect x="159" y="144" width="34" height="34"/><rect x="193" y="144" width="34" height="34"/><rect x="227" y="144" width="34" height="34"/>
  </g>
  <g fill="#ea580c">
    <circle cx="142" cy="93" r="5"/><circle cx="176" cy="93" r="5"/><circle cx="210" cy="93" r="5"/><circle cx="244" cy="93" r="5"/>
    <circle cx="142" cy="127" r="5"/><circle cx="176" cy="127" r="5"/><circle cx="210" cy="127" r="5"/><circle cx="244" cy="127" r="5"/>
    <circle cx="142" cy="161" r="5"/><circle cx="176" cy="161" r="5"/><circle cx="210" cy="161" r="5"/><circle cx="244" cy="161" r="5"/>
  </g>
  <text x="210" y="214" text-anchor="middle" font-size="12" fill="#475569">Small cells, dense cytoplasm, active division</text>

</svg>