<svg width="100%" height="100%" viewBox="0 0 420 260" xmlns="http://www.w3.org/2000/svg" role="img" aria-label="Mitosis and Meiosis">
  <defs>
    <marker id="arrow" markerWidth="8" markerHeight="8" refX="7" refY="3.5" orient="auto">
      <path d="M0,0 L0,7 L8,3.5 z" fill="#0f172a"/>
    </marker>
    <marker id="arrowBlue" markerWidth="8" markerHeight="8" refX="7" refY="3.5" orient="auto">
      <path d="M0,0 L0,7 L8,3.5 z" fill="#2563eb"/>
    </marker>
  </defs>
  <rect width="420" height="260" rx="18" fill="#f8fafc"/>
  <rect x="14" y="14" width="392" height="232" rx="14" fill="#ffffff" stroke="#cbd5e1" stroke-width="1.5"/>
  <text x="210.0" y="38" text-anchor="middle" font-family="Arial, sans-serif" font-size="15" font-weight="700" fill="#0f172a">Mitosis and Meiosis</text>
  
  <ellipse cx="115" cy="100" rx="42" ry="30" fill="#e0f2fe" stroke="#0284c7" stroke-width="2"/>
  <line x1="115" y1="130" x2="90" y2="175" stroke="#2563eb" stroke-width="2" marker-end="url(#arrowBlue)"/>
  <line x1="115" y1="130" x2="140" y2="175" stroke="#2563eb" stroke-width="2" marker-end="url(#arrowBlue)"/>
  <ellipse cx="88" cy="195" rx="28" ry="20" fill="#dbeafe" stroke="#2563eb"/>
  <ellipse cx="142" cy="195" rx="28" ry="20" fill="#dbeafe" stroke="#2563eb"/>
  <text x="115" y="72" text-anchor="middle" font-size="12" fill="#0f172a" font-family="Noto Sans Bengali, Arial, sans-serif">P: Mitosis</text>

  <ellipse cx="305" cy="90" rx="42" ry="28" fill="#fef3c7" stroke="#ea580c" stroke-width="2"/>
  <g stroke="#ea580c" stroke-width="2" marker-end="url(#arrow)">
    <line x1="305" y1="118" x2="270" y2="155"/><line x1="305" y1="118" x2="340" y2="155"/>
    <line x1="270" y1="175" x2="250" y2="210"/><line x1="270" y1="175" x2="290" y2="210"/>
    <line x1="340" y1="175" x2="320" y2="210"/><line x1="340" y1="175" x2="360" y2="210"/>
  </g>
  <text x="305" y="62" text-anchor="middle" font-size="12" fill="#0f172a" font-family="Noto Sans Bengali, Arial, sans-serif">Q: Meiosis</text>

</svg>