<svg width="100%" height="100%" viewBox="0 0 420 260" xmlns="http://www.w3.org/2000/svg" role="img" aria-label="DNA Double Helix">
  <defs>
    <marker id="arrow" markerWidth="8" markerHeight="8" refX="7" refY="3.5" orient="auto">
      <path d="M0,0 L0,7 L8,3.5 z" fill="#0f172a"/>
    </marker>
    <marker id="arrowBlue" markerWidth="8" markerHeight="8" refX="7" refY="3.5" orient="auto">
      <path d="M0,0 L0,7 L8,3.5 z" fill="#2563eb"/>
    </marker>
  </defs>
  <rect width="420" height="260" rx="18" fill="#f8fafc"/>
  <rect x="14" y="14" width="392" height="232" rx="14" fill="#ffffff" stroke="#cbd5e1" stroke-width="1.5"/>
  <text x="210.0" y="38" text-anchor="middle" font-family="Arial, sans-serif" font-size="15" font-weight="700" fill="#0f172a">DNA Double Helix</text>
  
  <path d="M160 58 C230 88,230 122,160 152 C105 176,105 202,160 224" fill="none" stroke="#2563eb" stroke-width="3.5"/>
  <path d="M260 58 C190 88,190 122,260 152 C315 176,315 202,260 224" fill="none" stroke="#7c3aed" stroke-width="3.5"/>
  <g stroke="#ea580c" stroke-width="2.4">
    <line x1="185" y1="68" x2="235" y2="68"/><line x1="202" y1="90" x2="218" y2="90"/>
    <line x1="198" y1="113" x2="222" y2="113"/><line x1="175" y1="140" x2="245" y2="140"/>
    <line x1="152" y1="166" x2="268" y2="166"/><line x1="145" y1="190" x2="275" y2="190"/>
    <line x1="160" y1="214" x2="260" y2="214"/>
  </g>
  <line x1="326" y1="72" x2="326" y2="166" stroke="#16a34a" stroke-width="2"/>
  <line x1="316" y1="72" x2="336" y2="72" stroke="#16a34a" stroke-width="2"/>
  <line x1="316" y1="166" x2="336" y2="166" stroke="#16a34a" stroke-width="2"/>
  <text x="345" y="124" font-size="13" fill="#16a34a">34 Å</text>

</svg>