<svg width="100%" height="100%" viewBox="0 0 420 260" xmlns="http://www.w3.org/2000/svg" role="img" aria-label="Crossing Over">
  <defs>
    <marker id="arrow" markerWidth="8" markerHeight="8" refX="7" refY="3.5" orient="auto">
      <path d="M0,0 L0,7 L8,3.5 z" fill="#0f172a"/>
    </marker>
    <marker id="arrowBlue" markerWidth="8" markerHeight="8" refX="7" refY="3.5" orient="auto">
      <path d="M0,0 L0,7 L8,3.5 z" fill="#2563eb"/>
    </marker>
  </defs>
  <rect width="420" height="260" rx="18" fill="#f8fafc"/>
  <rect x="14" y="14" width="392" height="232" rx="14" fill="#ffffff" stroke="#cbd5e1" stroke-width="1.5"/>
  <text x="210.0" y="38" text-anchor="middle" font-family="Arial, sans-serif" font-size="15" font-weight="700" fill="#0f172a">Crossing Over</text>
  
  <path d="M155 65 C190 100,190 165,155 205" stroke="#2563eb" stroke-width="7" fill="none" stroke-linecap="round"/>
  <path d="M265 65 C230 100,230 165,265 205" stroke="#dc2626" stroke-width="7" fill="none" stroke-linecap="round"/>
  <path d="M155 65 C190 100,230 165,265 205" stroke="#2563eb" stroke-width="3.5" fill="none"/>
  <path d="M265 65 C230 100,190 165,155 205" stroke="#dc2626" stroke-width="3.5" fill="none"/>
  <circle cx="210" cy="135" r="8" fill="#ea580c"/>
  <text x="210" y="120" text-anchor="middle" font-size="12" fill="#ea580c" font-family="Noto Sans Bengali, Arial, sans-serif">Chiasma</text>

</svg>