<svg xmlns="http://www.w3.org/2000/svg" width="100%" height="100%" viewBox="0 0 360 220">
  <defs>
    <style>
      .bg{fill:#020617}
      .tube{fill:none;stroke:#38bdf8;stroke-width:8;stroke-linecap:round;stroke-linejoin:round}
      .sac{fill:#172554;stroke:#93c5fd;stroke-width:2.5}
      .capillary{fill:none;stroke:#ef4444;stroke-width:3;stroke-linecap:round}
      .label{font-family:"Noto Sans Bengali",Arial,sans-serif;font-size:13px;font-weight:800;fill:#e5e7eb}
    </style>
  </defs>

  <rect width="360" height="220" rx="18" class="bg"/>

  <path d="M180 35 V88" class="tube"/>
  <path d="M180 88 C145 100 125 122 108 150" class="tube"/>
  <path d="M180 88 C215 100 235 122 252 150" class="tube"/>

  <circle cx="95" cy="158" r="26" class="sac"/>
  <circle cx="135" cy="160" r="28" class="sac"/>
  <circle cx="180" cy="165" r="30" class="sac"/>
  <circle cx="225" cy="160" r="28" class="sac"/>
  <circle cx="265" cy="158" r="26" class="sac"/>

  <path d="M70 178 C105 202 140 200 180 188 C220 200 255 202 290 178" class="capillary"/>
  <path d="M72 145 C112 120 145 126 180 142 C215 126 248 120 288 145" class="capillary"/>

  <text x="180" y="207" text-anchor="middle" class="label">অ্যালভিওলাই</text>
</svg>
