<svg width="100%" height="100%" viewBox="0 0 420 260" xmlns="http://www.w3.org/2000/svg" role="img" aria-label="Circle Geometry: PQ, OP and angle PSQ">
  <defs>
    <marker id="arrow" markerWidth="8" markerHeight="8" refX="7" refY="3.5" orient="auto">
      <path d="M0,0 L0,7 L8,3.5 z" fill="#0f172a"/>
    </marker>
    <marker id="arrowBlue" markerWidth="8" markerHeight="8" refX="7" refY="3.5" orient="auto">
      <path d="M0,0 L0,7 L8,3.5 z" fill="#2563eb"/>
    </marker>
  </defs>
  <rect width="420" height="260" rx="18" fill="#f8fafc"/>
  <rect x="14" y="14" width="392" height="232" rx="14" fill="#ffffff" stroke="#cbd5e1" stroke-width="1.5"/>
  <text x="210.0" y="38" text-anchor="middle" font-family="Arial, sans-serif" font-size="15" font-weight="700" fill="#0f172a">Circle Geometry: PQ, OP and angle PSQ</text>
  
  <circle cx="210" cy="130" r="78" fill="none" stroke="#2563eb" stroke-width="3"/>
  <circle cx="210" cy="130" r="4" fill="#ea580c"/><text x="218" y="126" font-size="12" fill="#ea580c">O</text>
  <circle cx="138" cy="100" r="5" fill="#0f172a"/><text x="126" y="94" font-size="12" fill="#0f172a">P</text>
  <circle cx="282" cy="100" r="5" fill="#0f172a"/><text x="292" y="94" font-size="12" fill="#0f172a">Q</text>
  <circle cx="210" cy="208" r="5" fill="#0f172a"/><text x="218" y="224" font-size="12" fill="#0f172a">S</text>
  <line x1="138" y1="100" x2="282" y2="100" stroke="#0284c7" stroke-width="2"/>
  <line x1="210" y1="130" x2="138" y2="100" stroke="#ea580c" stroke-width="2"/>
  <line x1="210" y1="208" x2="138" y2="100" stroke="#16a34a" stroke-width="2"/>
  <line x1="210" y1="208" x2="282" y2="100" stroke="#16a34a" stroke-width="2"/>
  <text x="210" y="86" text-anchor="middle" font-size="12" fill="#0284c7">PQ = 30 cm</text>
  <text x="163" y="121" font-size="11" fill="#ea580c">OP = 17 cm</text>
  <text x="210" y="190" text-anchor="middle" font-size="12" fill="#16a34a">∠PSQ = 120°</text>

</svg>