<svg width="100%" height="100%" viewBox="0 0 420 260" xmlns="http://www.w3.org/2000/svg" role="img" aria-label="Resultant of 5 N and 7 N at 60°">
  <defs>
    <marker id="arrow" markerWidth="8" markerHeight="8" refX="7" refY="3.5" orient="auto">
      <path d="M0,0 L0,7 L8,3.5 z" fill="#0f172a"/>
    </marker>
    <marker id="arrowBlue" markerWidth="8" markerHeight="8" refX="7" refY="3.5" orient="auto">
      <path d="M0,0 L0,7 L8,3.5 z" fill="#2563eb"/>
    </marker>
  </defs>
  <rect width="420" height="260" rx="18" fill="#f8fafc"/>
  <rect x="14" y="14" width="392" height="232" rx="14" fill="#ffffff" stroke="#cbd5e1" stroke-width="1.5"/>
  <text x="210.0" y="38" text-anchor="middle" font-family="Arial, sans-serif" font-size="15" font-weight="700" fill="#0f172a">Resultant of 5 N and 7 N at 60°</text>
  
  <line x1="115" y1="180" x2="265" y2="180" stroke="#2563eb" stroke-width="3" marker-end="url(#arrowBlue)"/>
  <line x1="115" y1="180" x2="200" y2="70" stroke="#16a34a" stroke-width="3" marker-end="url(#arrow)"/>
  <line x1="265" y1="180" x2="350" y2="70" stroke="#16a34a" stroke-width="2" stroke-dasharray="5 5"/>
  <line x1="200" y1="70" x2="350" y2="70" stroke="#2563eb" stroke-width="2" stroke-dasharray="5 5"/>
  <line x1="115" y1="180" x2="350" y2="70" stroke="#ea580c" stroke-width="3" marker-end="url(#arrow)"/>
  <path d="M148 180 A35 35 0 0 0 138 150" fill="none" stroke="#ea580c" stroke-width="2"/>
  <text x="185" y="197" font-size="12" fill="#2563eb" font-family="Noto Sans Bengali, Arial, sans-serif">5 N</text>
  <text x="165" y="112" font-size="12" fill="#16a34a" font-family="Noto Sans Bengali, Arial, sans-serif">7 N</text>
  <text x="145" y="149" font-size="12" fill="#ea580c" font-family="Noto Sans Bengali, Arial, sans-serif">60°</text>
  <text x="260" y="110" font-size="12" fill="#ea580c" font-family="Noto Sans Bengali, Arial, sans-serif">R</text>

</svg>