<svg xmlns="http://www.w3.org/2000/svg" width="100%" height="100%" viewBox="0 0 360 220" role="img" aria-label="hsc biology 1st paper chapter 01 set 09 q05">
  <defs>
    <radialGradient id="bg" cx="50%" cy="45%" r="75%"><stop offset="0%" stop-color="#155e75"/><stop offset="100%" stop-color="#020617"/></radialGradient>
    <filter id="g"><feDropShadow dx="0" dy="0" stdDeviation="4" flood-color="#67e8f9" flood-opacity=".55"/></filter>
    <style>.cell{fill:#0f172a;stroke:#67e8f9;stroke-width:3;filter:url(#g)}.sp{stroke:#cbd5e1;stroke-width:1.4;fill:none}.chr{stroke:#facc15;stroke-width:5;stroke-linecap:round}.t{font-family:Arial,sans-serif;font-size:21px;font-weight:900;fill:#fff}</style>
  </defs>
  <rect width="360" height="220" rx="18" fill="url(#bg)"/>
  <ellipse cx="180" cy="110" rx="114" ry="78" class="cell"/>
  <path d="M102 110 C137 80 160 75 180 104 M102 110 C137 140 160 145 180 116 M258 110 C223 80 200 75 180 104 M258 110 C223 140 200 145 180 116" class="sp"/>
  <circle cx="102" cy="110" r="5" fill="#67e8f9"/><circle cx="258" cy="110" r="5" fill="#67e8f9"/>
  <path d="M165 88 L195 132 M195 88 L165 132" class="chr"/>
  <text x="180" y="78" text-anchor="middle" class="t" font-family="Noto Sans Bengali, Arial, sans-serif">A</text>
</svg>

