<svg width="100%" height="100%" viewBox="0 0 420 260" xmlns="http://www.w3.org/2000/svg" role="img" aria-label="Mass-Spring SHM">
  <defs>
    <marker id="arrow" markerWidth="8" markerHeight="8" refX="7" refY="3.5" orient="auto"><path d="M0,0 L0,7 L8,3.5 z" fill="#0f172a"/></marker>
    <marker id="arrowBlue" markerWidth="8" markerHeight="8" refX="7" refY="3.5" orient="auto"><path d="M0,0 L0,7 L8,3.5 z" fill="#2563eb"/></marker>
  </defs>
  <rect width="420" height="260" rx="18" fill="#f8fafc"/>
  <rect x="14" y="14" width="392" height="232" rx="14" fill="#ffffff" stroke="#cbd5e1" stroke-width="1.5"/>
  <text x="210" y="38" text-anchor="middle" font-family="Arial, sans-serif" font-size="15" font-weight="700" fill="#0f172a">Mass-Spring SHM</text>
  
  <g stroke="#0f172a" stroke-width="2.2" fill="none">
    <line x1="65" y1="60" x2="65" y2="190"/>
    <line x1="65" y1="125" x2="105" y2="125"/>
    <path d="M105 125 h8 l7 -17 l10 34 l10 -34 l10 34 l10 -34 l10 34 l7 -17 h8"/>
    <rect x="230" y="95" width="70" height="60" rx="8" fill="#dbeafe" stroke="#2563eb"/>
    <line x1="185" y1="125" x2="230" y2="125"/>
    <line x1="210" y1="180" x2="295" y2="180" marker-end="url(#arrow)"/>
  </g>
  <text x="265" y="130" text-anchor="middle" font-size="15" fill="#0f172a" font-family="Noto Sans Bengali, Arial, sans-serif">m</text>
  <text x="145" y="95" text-anchor="middle" font-size="13" fill="#2563eb" font-family="Noto Sans Bengali, Arial, sans-serif">k</text>
  <text x="253" y="202" text-anchor="middle" font-size="12" fill="#475569" font-family="Noto Sans Bengali, Arial, sans-serif">SHM: ω = √(k/m)</text>

</svg>