<svg width="100%" height="100%" viewBox="0 0 420 260" xmlns="http://www.w3.org/2000/svg" role="img" aria-label="Dry Cells in Parallel">
  <defs>
    <marker id="arrow" markerWidth="8" markerHeight="8" refX="7" refY="3.5" orient="auto"><path d="M0,0 L0,7 L8,3.5 z" fill="#0f172a"/></marker>
    <marker id="arrowBlue" markerWidth="8" markerHeight="8" refX="7" refY="3.5" orient="auto"><path d="M0,0 L0,7 L8,3.5 z" fill="#2563eb"/></marker>
  </defs>
  <rect width="420" height="260" rx="18" fill="#f8fafc"/>
  <rect x="14" y="14" width="392" height="232" rx="14" fill="#ffffff" stroke="#cbd5e1" stroke-width="1.5"/>
  <text x="210" y="38" text-anchor="middle" font-family="Arial, sans-serif" font-size="15" font-weight="700" fill="#0f172a">Dry Cells in Parallel</text>
  
  <g stroke="#0f172a" stroke-width="2.2" fill="none">
    <line x1="85" y1="70" x2="85" y2="190"/>
    <line x1="335" y1="70" x2="335" y2="190"/>
    <line x1="85" y1="70" x2="335" y2="70"/>
    <line x1="85" y1="190" x2="335" y2="190"/>
    <g>
      <line x1="145" y1="95" x2="145" y2="145"/>
      <line x1="158" y1="107" x2="158" y2="133"/>
      <line x1="85" y1="120" x2="145" y2="120"/><line x1="158" y1="120" x2="335" y2="120"/>
      <text x="152" y="90" text-anchor="middle" font-size="12" fill="#2563eb" font-family="Noto Sans Bengali, Arial, sans-serif">E₁,r₁</text>
    </g>
    <g>
      <line x1="225" y1="95" x2="225" y2="145"/>
      <line x1="238" y1="107" x2="238" y2="133"/>
      <line x1="85" y1="160" x2="225" y2="160"/><line x1="238" y1="160" x2="335" y2="160"/>
      <text x="232" y="180" text-anchor="middle" font-size="12" fill="#2563eb" font-family="Noto Sans Bengali, Arial, sans-serif">E₂,r₂</text>
    </g>
  </g>
  <rect x="182" y="56" width="56" height="28" rx="14" fill="#dcfce7" stroke="#16a34a"/>
  <text x="210" y="75" text-anchor="middle" font-size="12" fill="#166534" font-family="Noto Sans Bengali, Arial, sans-serif">Parallel</text>
  <text x="210" y="222" text-anchor="middle" font-size="12" fill="#475569" font-family="Noto Sans Bengali, Arial, sans-serif">উত্তম শুষ্ক কোষের সমান্তরাল সমবায়</text>

</svg>