<svg width="100%" height="100%" viewBox="0 0 420 260" xmlns="http://www.w3.org/2000/svg" role="img" aria-label="Parallel Resistors">
  <defs>
    <marker id="arrow" markerWidth="8" markerHeight="8" refX="7" refY="3.5" orient="auto"><path d="M0,0 L0,7 L8,3.5 z" fill="#0f172a"/></marker>
    <marker id="arrowBlue" markerWidth="8" markerHeight="8" refX="7" refY="3.5" orient="auto"><path d="M0,0 L0,7 L8,3.5 z" fill="#2563eb"/></marker>
  </defs>
  <rect width="420" height="260" rx="18" fill="#f8fafc"/>
  <rect x="14" y="14" width="392" height="232" rx="14" fill="#ffffff" stroke="#cbd5e1" stroke-width="1.5"/>
  <text x="210" y="38" text-anchor="middle" font-family="Arial, sans-serif" font-size="15" font-weight="700" fill="#0f172a">Parallel Resistors</text>
  
  <g stroke="#0f172a" stroke-width="2.3" fill="none">
    <line x1="70" y1="130" x2="120" y2="130"/>
    <line x1="120" y1="80" x2="120" y2="180"/>
    <line x1="300" y1="80" x2="300" y2="180"/>
    <line x1="300" y1="130" x2="350" y2="130"/>
    <path d="M120 95 H165 l7 -13 l7 26 l7 -26 l7 26 l7 -13 H300"/>
    <path d="M120 165 H165 l7 -13 l7 26 l7 -26 l7 26 l7 -13 H300"/>
  </g>
  <text x="210" y="75" text-anchor="middle" font-size="13" fill="#2563eb" font-family="Noto Sans Bengali, Arial, sans-serif">R₁</text>
  <text x="210" y="205" text-anchor="middle" font-size="13" fill="#2563eb" font-family="Noto Sans Bengali, Arial, sans-serif">R₂</text>
  <text x="210" y="225" text-anchor="middle" font-size="12" fill="#475569" font-family="Noto Sans Bengali, Arial, sans-serif">দুটি রোধ সমান্তরালে যুক্ত</text>

</svg>