<svg width="100%" height="100%" viewBox="0 0 420 260" xmlns="http://www.w3.org/2000/svg" role="img" aria-label="Buoyancy of Immersed Body">
  <defs>
    <marker id="arrow" markerWidth="8" markerHeight="8" refX="7" refY="3.5" orient="auto">
      <path d="M0,0 L0,7 L8,3.5 z" fill="#0f172a"/>
    </marker>
    <marker id="arrowBlue" markerWidth="8" markerHeight="8" refX="7" refY="3.5" orient="auto">
      <path d="M0,0 L0,7 L8,3.5 z" fill="#2563eb"/>
    </marker>
  </defs>
  <rect width="420" height="260" rx="18" fill="#f8fafc"/>
  <rect x="14" y="14" width="392" height="232" rx="14" fill="#ffffff" stroke="#cbd5e1" stroke-width="1.5"/>
  <text x="210.0" y="38" text-anchor="middle" font-family="Arial, sans-serif" font-size="15" font-weight="700" fill="#0f172a">Buoyancy of Immersed Body</text>
  
  <rect x="105" y="70" width="210" height="135" rx="8" fill="#e0f2fe" stroke="#0284c7" stroke-width="2"/>
  <path d="M105 115 C150 100,190 130,235 112 C270 100,292 125,315 112 L315 205 L105 205 Z" fill="#7dd3fc" opacity="0.45"/>
  <rect x="180" y="135" width="60" height="45" fill="#cbd5e1" stroke="#0f172a" stroke-width="2"/>
  <line x1="210" y1="135" x2="210" y2="88" stroke="#16a34a" stroke-width="3" marker-end="url(#arrow)"/>
  <line x1="210" y1="180" x2="210" y2="222" stroke="#dc2626" stroke-width="3" marker-end="url(#arrow)"/>
  <text x="222" y="100" font-size="12" fill="#16a34a">Upthrust</text>
  <text x="222" y="218" font-size="12" fill="#dc2626">Weight</text>

</svg>