<svg width="100%" height="100%" viewBox="0 0 420 260" xmlns="http://www.w3.org/2000/svg" role="img" aria-label="Resistor Network: 20V with 6Ω and 12Ω Parallel">
  <defs>
    <marker id="arrow" markerWidth="8" markerHeight="8" refX="7" refY="3.5" orient="auto">
      <path d="M0,0 L0,7 L8,3.5 z" fill="#0f172a"/>
    </marker>
    <marker id="arrowBlue" markerWidth="8" markerHeight="8" refX="7" refY="3.5" orient="auto">
      <path d="M0,0 L0,7 L8,3.5 z" fill="#2563eb"/>
    </marker>
  </defs>
  <rect width="420" height="260" rx="18" fill="#f8fafc"/>
  <rect x="14" y="14" width="392" height="232" rx="14" fill="#ffffff" stroke="#cbd5e1" stroke-width="1.5"/>
  <text x="210.0" y="38" text-anchor="middle" font-family="Arial, sans-serif" font-size="15" font-weight="700" fill="#0f172a">Resistor Network: 20V with 6Ω and 12Ω Parallel</text>
  
  <g stroke="#0f172a" stroke-width="2.3" fill="none">
    <line x1="70" y1="130" x2="115" y2="130"/>
    <line x1="115" y1="82" x2="115" y2="178"/>
    <line x1="260" y1="82" x2="260" y2="178"/>
    <path d="M115 95 H155 l7 -12 l7 24 l7 -24 l7 24 l7 -12 H260"/>
    <path d="M115 165 H155 l7 -12 l7 24 l7 -24 l7 24 l7 -12 H260"/>
    <path d="M260 130 H300 l7 -12 l7 24 l7 -24 l7 24 l7 -12 H360"/>
  </g>
  <text x="188" y="75" text-anchor="middle" font-size="12" fill="#2563eb" font-family="Noto Sans Bengali, Arial, sans-serif">6 Ω</text>
  <text x="188" y="208" text-anchor="middle" font-size="12" fill="#2563eb" font-family="Noto Sans Bengali, Arial, sans-serif">12 Ω</text>
  <text x="323" y="105" text-anchor="middle" font-size="12" fill="#ea580c" font-family="Noto Sans Bengali, Arial, sans-serif">6 Ω</text>
  <text x="70" y="112" font-size="12" fill="#0f172a" font-family="Noto Sans Bengali, Arial, sans-serif">20 V</text>

</svg>