<svg width="100%" height="100%" viewBox="0 0 420 260" xmlns="http://www.w3.org/2000/svg" role="img" aria-label="Concave Mirror Ray Diagram">
  <defs>
    <marker id="arrow" markerWidth="8" markerHeight="8" refX="7" refY="3.5" orient="auto">
      <path d="M0,0 L0,7 L8,3.5 z" fill="#0f172a"/>
    </marker>
    <marker id="arrowBlue" markerWidth="8" markerHeight="8" refX="7" refY="3.5" orient="auto">
      <path d="M0,0 L0,7 L8,3.5 z" fill="#2563eb"/>
    </marker>
  </defs>
  <rect width="420" height="260" rx="18" fill="#f8fafc"/>
  <rect x="14" y="14" width="392" height="232" rx="14" fill="#ffffff" stroke="#cbd5e1" stroke-width="1.5"/>
  <text x="210.0" y="38" text-anchor="middle" font-family="Arial, sans-serif" font-size="15" font-weight="700" fill="#0f172a">Concave Mirror Ray Diagram</text>
  
  <line x1="55" y1="145" x2="365" y2="145" stroke="#0f172a" stroke-width="2"/>
  <path d="M300 70 Q245 145 300 220" fill="none" stroke="#2563eb" stroke-width="4"/>
  <circle cx="220" cy="145" r="4" fill="#ea580c"/><text x="220" y="165" text-anchor="middle" font-size="12" fill="#ea580c">F</text>
  <circle cx="145" cy="145" r="4" fill="#16a34a"/><text x="145" y="165" text-anchor="middle" font-size="12" fill="#16a34a">C</text>
  <line x1="110" y1="145" x2="110" y2="70" stroke="#0f172a" stroke-width="3"/>
  <polygon points="110,70 102,87 118,87" fill="#0f172a"/>
  <line x1="110" y1="80" x2="297" y2="80" stroke="#dc2626" stroke-width="2" marker-end="url(#arrow)"/>
  <line x1="297" y1="80" x2="160" y2="145" stroke="#dc2626" stroke-width="2"/>
  <text x="210" y="230" text-anchor="middle" font-size="12" fill="#475569">Object at/near C for concave mirror</text>

</svg>