<svg xmlns="http://www.w3.org/2000/svg" width="900" height="520" viewBox="0 0 900 520" role="img" aria-label="ssc concave mirror principal">
  <defs>
    <marker id="arrow" markerWidth="10" markerHeight="10" refX="8" refY="3" orient="auto">
      <path d="M0,0 L0,6 L9,3 z" fill="#111827"/>
    </marker>
    <style>
      .bg{fill:#f8fafc}.box{fill:#fff;stroke:#cbd5e1;stroke-width:2}
      .axis{stroke:#111827;stroke-width:3;marker-end:url(#arrow)}
      .mirror{fill:none;stroke:#2563eb;stroke-width:5}
      .tick{stroke:#111827;stroke-width:3}
      .obj{stroke:#dc2626;stroke-width:5;marker-end:url(#arrow)}
      .label{font-family:Arial,"Noto Sans Bengali",sans-serif;font-size:22px;font-weight:700;fill:#111827}
      .small{font-family:Arial,"Noto Sans Bengali",sans-serif;font-size:18px;font-weight:600;fill:#334155}
    </style>
  </defs>
  <rect x="10" y="10" width="880" height="500" rx="22" class="bg"/>
  <rect x="30" y="30" width="840" height="460" rx="18" class="box"/>
  <line x1="95" y1="275" x2="790" y2="275" class="axis"/>
  <path d="M710 120 Q650 275 710 430" class="mirror"/>
  <line x1="590" y1="250" x2="590" y2="300" class="tick"/>
  <line x1="470" y1="250" x2="470" y2="300" class="tick"/>
  <line x1="350" y1="250" x2="350" y2="300" class="tick"/>
  <line x1="230" y1="250" x2="230" y2="300" class="tick"/>
  <text x="585" y="328" class="small" font-family="Noto Sans Bengali, Arial, sans-serif">10 cm</text>
  <text x="465" y="328" class="small" font-family="Noto Sans Bengali, Arial, sans-serif">20 cm</text>
  <text x="345" y="328" class="small" font-family="Noto Sans Bengali, Arial, sans-serif">30 cm</text>
  <text x="225" y="328" class="small" font-family="Noto Sans Bengali, Arial, sans-serif">40 cm</text>
  <text x="705" y="460" class="label" font-family="Noto Sans Bengali, Arial, sans-serif">?????</text>
  <text x="585" y="230" class="label" font-family="Noto Sans Bengali, Arial, sans-serif">F</text>
  <text x="465" y="230" class="label" font-family="Noto Sans Bengali, Arial, sans-serif">C</text>
  <line x1="395" y1="275" x2="395" y2="175" class="obj"/>
  <text x="375" y="160" class="label" font-family="Noto Sans Bengali, Arial, sans-serif">?????</text>
</svg>
