<svg width="100%" height="100%" viewBox="0 0 420 260" xmlns="http://www.w3.org/2000/svg" role="img" aria-label="Basic Power Circuit">
  <defs>
    <marker id="arrow" markerWidth="8" markerHeight="8" refX="7" refY="3.5" orient="auto">
      <path d="M0,0 L0,7 L8,3.5 z" fill="#0f172a"/>
    </marker>
    <marker id="arrowBlue" markerWidth="8" markerHeight="8" refX="7" refY="3.5" orient="auto">
      <path d="M0,0 L0,7 L8,3.5 z" fill="#2563eb"/>
    </marker>
  </defs>
  <rect width="420" height="260" rx="18" fill="#f8fafc"/>
  <rect x="14" y="14" width="392" height="232" rx="14" fill="#ffffff" stroke="#cbd5e1" stroke-width="1.5"/>
  <text x="210.0" y="38" text-anchor="middle" font-family="Arial, sans-serif" font-size="15" font-weight="700" fill="#0f172a">Basic Power Circuit</text>
  
  <g stroke="#0f172a" stroke-width="2.3" fill="none">
    <line x1="90" y1="90" x2="330" y2="90"/>
    <line x1="330" y1="90" x2="330" y2="190"/>
    <line x1="330" y1="190" x2="90" y2="190"/>
    <line x1="90" y1="190" x2="90" y2="90"/>
    <line x1="85" y1="125" x2="115" y2="125"/><line x1="95" y1="140" x2="105" y2="140"/>
    <path d="M180 90 h15 l7 -12 l7 24 l7 -24 l7 24 l7 -12 h15"/>
  </g>
  <text x="100" y="118" font-size="12" fill="#ea580c">E = 10 V</text>
  <text x="210" y="72" text-anchor="middle" font-size="12" fill="#2563eb">R</text>
  <text x="290" y="215" font-size="12" fill="#16a34a">I = 3 A</text>
  <text x="210" y="230" text-anchor="middle" font-size="12" fill="#475569">P = VI</text>

</svg>