<svg xmlns="http://www.w3.org/2000/svg" width="100%" height="100%" viewBox="0 0 360 220" role="img" aria-label="ssc biology board standard model test 02 q09">
  <defs>
    <marker id="arrow" markerWidth="8" markerHeight="8" refX="7" refY="3" orient="auto">
      <path d="M0,0 L0,6 L8,3 z" fill="#38bdf8"/>
    </marker>
    <style>
      .bg{fill:#020617}
      .leaf{fill:#14532d;stroke:#86efac;stroke-width:3}
      .vein{stroke:#86efac;stroke-width:2;fill:none;stroke-linecap:round}
      .pore{fill:#020617;stroke:#38bdf8;stroke-width:2}
      .vapour{stroke:#38bdf8;stroke-width:2.2;fill:none;marker-end:url(#arrow);stroke-linecap:round}
      .label{font-family:Arial,sans-serif;font-size:17px;font-weight:800;fill:#e5e7eb}
    </style>
  </defs>
  <rect width="360" height="220" rx="18" class="bg"/>
  <path d="M70 135 C115 55 230 48 300 120 C245 190 130 190 70 135Z" class="leaf"/>
  <path d="M75 135 C135 125 205 112 292 120" class="vein"/>
  <path d="M155 115 C150 135 148 152 145 170" class="vein"/>
  <path d="M210 105 C214 128 220 150 230 170" class="vein"/>
  <ellipse cx="150" cy="140" rx="16" ry="8" class="pore"/>
  <ellipse cx="205" cy="132" rx="16" ry="8" class="pore"/>
  <path d="M150 130 C145 105 148 88 138 65" class="vapour"/>
  <path d="M205 122 C215 95 212 78 225 55" class="vapour"/>
  <path d="M180 122 C180 92 178 70 180 45" class="vapour"/>
  <text x="150" y="160" text-anchor="middle" class="label" font-family="Noto Sans Bengali, Arial, sans-serif">A</text>
  <text x="205" y="152" text-anchor="middle" class="label" font-family="Noto Sans Bengali, Arial, sans-serif">B</text>
</svg>
