<svg width="100%" height="100%" viewBox="0 0 420 260" xmlns="http://www.w3.org/2000/svg" role="img" aria-label="Young Double Slit / Fringe">
  <defs>
    <marker id="arrow" markerWidth="8" markerHeight="8" refX="7" refY="3.5" orient="auto"><path d="M0,0 L0,7 L8,3.5 z" fill="#0f172a"/></marker>
    <marker id="arrowBlue" markerWidth="8" markerHeight="8" refX="7" refY="3.5" orient="auto"><path d="M0,0 L0,7 L8,3.5 z" fill="#2563eb"/></marker>
  </defs>
  <rect width="420" height="260" rx="18" fill="#f8fafc"/>
  <rect x="14" y="14" width="392" height="232" rx="14" fill="#ffffff" stroke="#cbd5e1" stroke-width="1.5"/>
  <text x="210" y="38" text-anchor="middle" font-family="Arial, sans-serif" font-size="15" font-weight="700" fill="#0f172a">Young Double Slit / Fringe</text>
  
  <g stroke="#0f172a" stroke-width="2" fill="none">
    <line x1="80" y1="70" x2="80" y2="190"/>
    <line x1="185" y1="55" x2="185" y2="205"/>
    <line x1="330" y1="50" x2="330" y2="210"/>
    <circle cx="80" cy="130" r="5" fill="#f59e0b"/>
    <line x1="185" y1="105" x2="185" y2="118"/>
    <line x1="185" y1="142" x2="185" y2="155"/>
    <line x1="85" y1="130" x2="185" y2="112" stroke="#2563eb"/>
    <line x1="85" y1="130" x2="185" y2="148" stroke="#2563eb"/>
    <line x1="185" y1="112" x2="330" y2="80" stroke="#2563eb"/>
    <line x1="185" y1="148" x2="330" y2="180" stroke="#2563eb"/>
  </g>
  <g stroke="#f59e0b" stroke-width="2">
    <line x1="320" y1="90" x2="340" y2="90"/>
    <line x1="320" y1="115" x2="340" y2="115"/>
    <line x1="320" y1="140" x2="340" y2="140"/>
    <line x1="320" y1="165" x2="340" y2="165"/>
  </g>
  <text x="80" y="212" text-anchor="middle" font-size="11" fill="#475569" font-family="Noto Sans Bengali, Arial, sans-serif">source</text>
  <text x="185" y="222" text-anchor="middle" font-size="11" fill="#475569" font-family="Noto Sans Bengali, Arial, sans-serif">double slit</text>
  <text x="330" y="228" text-anchor="middle" font-size="11" fill="#475569" font-family="Noto Sans Bengali, Arial, sans-serif">screen fringes</text>
  <text x="210" y="78" text-anchor="middle" font-size="12" fill="#2563eb" font-family="Noto Sans Bengali, Arial, sans-serif">β = λD/d</text>

</svg>