<svg width="100%" height="100%" viewBox="0 0 420 260" xmlns="http://www.w3.org/2000/svg" role="img" aria-label="Cell Terminal Potential Difference">
  <defs>
    <marker id="arrow" markerWidth="8" markerHeight="8" refX="7" refY="3.5" orient="auto"><path d="M0,0 L0,7 L8,3.5 z" fill="#0f172a"/></marker>
    <marker id="arrowBlue" markerWidth="8" markerHeight="8" refX="7" refY="3.5" orient="auto"><path d="M0,0 L0,7 L8,3.5 z" fill="#2563eb"/></marker>
  </defs>
  <rect width="420" height="260" rx="18" fill="#f8fafc"/>
  <rect x="14" y="14" width="392" height="232" rx="14" fill="#ffffff" stroke="#cbd5e1" stroke-width="1.5"/>
  <text x="210" y="38" text-anchor="middle" font-family="Arial, sans-serif" font-size="15" font-weight="700" fill="#0f172a">Cell Terminal Potential Difference</text>
  
  <g stroke="#0f172a" stroke-width="2.3" fill="none">
    <line x1="90" y1="130" x2="150" y2="130"/>
    <line x1="150" y1="102" x2="150" y2="158"/>
    <line x1="164" y1="114" x2="164" y2="146"/>
    <path d="M164 130 H200 l8 -14 l8 28 l8 -28 l8 28 l8 -28 l8 14 H290"/>
    <line x1="290" y1="130" x2="330" y2="130"/>
  </g>
  <text x="157" y="92" text-anchor="middle" font-size="13" fill="#2563eb">E</text>
  <text x="225" y="108" text-anchor="middle" font-size="13" fill="#2563eb">r</text>
  <circle cx="90" cy="130" r="5" fill="#0f172a"/><circle cx="330" cy="130" r="5" fill="#0f172a"/>
  <path d="M95 170 H325" stroke="#2563eb" stroke-width="2" marker-end="url(#arrowBlue)"/>
  <text x="210" y="193" text-anchor="middle" font-size="12" fill="#2563eb">Terminal P.D. = V</text>
  <text x="210" y="222" text-anchor="middle" font-size="12" fill="#475569">কোষ/ব্যাটারির প্রান্তীয় বিভব পার্থক্য</text>

</svg>