<svg width="100%" height="100%" viewBox="0 0 360 220" xmlns="http://www.w3.org/2000/svg" role="img" aria-label="প্যারেনকাইমা টিস্যু">
  <defs>
    <linearGradient id="bg" x1="0" y1="0" x2="1" y2="1">
      <stop offset="0%" stop-color="#07111f"/>
      <stop offset="100%" stop-color="#0f172a"/>
    </linearGradient>
    <filter id="glow"><feGaussianBlur stdDeviation="2.2" result="b"/><feMerge><feMergeNode in="b"/><feMergeNode in="SourceGraphic"/></feMerge></filter>
    <marker id="arrow" markerWidth="8" markerHeight="8" refX="7" refY="3" orient="auto"><path d="M0,0 L0,6 L8,3 z" fill="#67e8f9"/></marker>
  </defs>
  <rect width="360" height="220" rx="18" fill="url(#bg)"/>
  <rect x="10" y="10" width="340" height="200" rx="14" fill="#ffffff" opacity=".035" stroke="#38bdf8" stroke-opacity=".24"/>
  <text x="180" y="28" text-anchor="middle" fill="#e0f2fe" font-size="12.5" font-weight="700" font-family="Noto Sans Bengali, Arial, sans-serif">প্যারেনকাইমা টিস্যু</text>
  <text x="180" y="44" text-anchor="middle" fill="#93c5fd" font-size="9.5" font-family="Noto Sans Bengali, Arial, sans-serif">Thin-walled living cells</text>
  <g filter="url(#glow)"><ellipse cx="100" cy="72" rx="20" ry="15" fill="#064e3b" stroke="#86efac" stroke-width="1.5"/><ellipse cx="110" cy="107" rx="20" ry="15" fill="#064e3b" stroke="#86efac" stroke-width="1.5"/><ellipse cx="100" cy="142" rx="20" ry="15" fill="#064e3b" stroke="#86efac" stroke-width="1.5"/><ellipse cx="142" cy="72" rx="20" ry="15" fill="#064e3b" stroke="#86efac" stroke-width="1.5"/><ellipse cx="152" cy="107" rx="20" ry="15" fill="#064e3b" stroke="#86efac" stroke-width="1.5"/><ellipse cx="142" cy="142" rx="20" ry="15" fill="#064e3b" stroke="#86efac" stroke-width="1.5"/><ellipse cx="184" cy="72" rx="20" ry="15" fill="#064e3b" stroke="#86efac" stroke-width="1.5"/><ellipse cx="194" cy="107" rx="20" ry="15" fill="#064e3b" stroke="#86efac" stroke-width="1.5"/><ellipse cx="184" cy="142" rx="20" ry="15" fill="#064e3b" stroke="#86efac" stroke-width="1.5"/><ellipse cx="226" cy="72" rx="20" ry="15" fill="#064e3b" stroke="#86efac" stroke-width="1.5"/><ellipse cx="236" cy="107" rx="20" ry="15" fill="#064e3b" stroke="#86efac" stroke-width="1.5"/><ellipse cx="226" cy="142" rx="20" ry="15" fill="#064e3b" stroke="#86efac" stroke-width="1.5"/>
    <text x="180" y="190" text-anchor="middle" fill="#bbf7d0" font-size="10" font-family="Noto Sans Bengali, Arial">প্যারেনকাইমা: নরম ও রসালো প্রধান টিস্যু</text></g>
  
</svg>