<svg width="100%" height="100%" viewBox="0 0 360 220" xmlns="http://www.w3.org/2000/svg" role="img" aria-label="চক্রীয় চতুর্ভুজ">
  <defs>
    <linearGradient id="bg" x1="0" y1="0" x2="1" y2="1">
      <stop offset="0%" stop-color="#07111f"/>
      <stop offset="100%" stop-color="#0f172a"/>
    </linearGradient>
    <filter id="glow"><feGaussianBlur stdDeviation="2.2" result="b"/><feMerge><feMergeNode in="b"/><feMergeNode in="SourceGraphic"/></feMerge></filter>
    <marker id="arrow" markerWidth="8" markerHeight="8" refX="7" refY="3" orient="auto"><path d="M0,0 L0,6 L8,3 z" fill="#67e8f9"/></marker>
  </defs>
  <rect width="360" height="220" rx="18" fill="url(#bg)"/>
  <rect x="10" y="10" width="340" height="200" rx="14" fill="#ffffff" opacity=".035" stroke="#38bdf8" stroke-opacity=".24"/>
  <text x="180" y="28" text-anchor="middle" fill="#e0f2fe" font-size="12.5" font-weight="700" font-family="Noto Sans Bengali, Arial, sans-serif">চক্রীয় চতুর্ভুজ</text>
  <text x="180" y="44" text-anchor="middle" fill="#93c5fd" font-size="9.5" font-family="Noto Sans Bengali, Arial, sans-serif">∠BAD + ∠BCD</text>
  <g filter="url(#glow)">
    <circle cx="180" cy="115" r="72" fill="none" stroke="#22d3ee" stroke-width="3"/>
    <polygon points="120,74 242,72 263,150 115,162" fill="none" stroke="#a3e635" stroke-width="3"/>
    <text x="112" y="68" fill="#fff" font-size="11" font-family="Noto Sans Bengali, Arial, sans-serif">A</text><text x="250" y="68" fill="#fff" font-size="11" font-family="Noto Sans Bengali, Arial, sans-serif">B</text>
    <text x="270" y="154" fill="#fff" font-size="11" font-family="Noto Sans Bengali, Arial, sans-serif">C</text><text x="103" y="172" fill="#fff" font-size="11" font-family="Noto Sans Bengali, Arial, sans-serif">D</text>
    <path d="M133 90 A27 27 0 0 1 153 78" fill="none" stroke="#fbbf24" stroke-width="3"/>
    <path d="M243 142 A27 27 0 0 1 228 156" fill="none" stroke="#f472b6" stroke-width="3"/>
    <text x="180" y="200" text-anchor="middle" fill="#bfdbfe" font-size="10" font-family="Noto Sans Bengali, Arial">Opposite angles in cyclic quadrilateral</text>
  </g>
  
</svg>