<svg width="100%" height="100%" viewBox="0 0 360 220" xmlns="http://www.w3.org/2000/svg" role="img" aria-label="Poaceae মূলের অন্তর্গঠন">
  <defs>
    <linearGradient id="bg" x1="0" y1="0" x2="1" y2="1">
      <stop offset="0%" stop-color="#07111f"/>
      <stop offset="100%" stop-color="#0f172a"/>
    </linearGradient>
    <filter id="glow"><feGaussianBlur stdDeviation="2.2" result="b"/><feMerge><feMergeNode in="b"/><feMergeNode in="SourceGraphic"/></feMerge></filter>
    <marker id="arrow" markerWidth="8" markerHeight="8" refX="7" refY="3" orient="auto"><path d="M0,0 L0,6 L8,3 z" fill="#67e8f9"/></marker>
  </defs>
  <rect width="360" height="220" rx="18" fill="url(#bg)"/>
  <rect x="10" y="10" width="340" height="200" rx="14" fill="#ffffff" opacity=".035" stroke="#38bdf8" stroke-opacity=".24"/>
  <text x="180" y="28" text-anchor="middle" fill="#e0f2fe" font-size="12.5" font-weight="700" font-family="Noto Sans Bengali, Arial, sans-serif">Poaceae মূলের অন্তর্গঠন</text>
  <text x="180" y="44" text-anchor="middle" fill="#93c5fd" font-size="9.5" font-family="Noto Sans Bengali, Arial, sans-serif">মজ্জা বড় ও সুস্পষ্ট</text>
  
  <g filter="url(#glow)">
    <circle cx="180" cy="118" r="70" fill="none" stroke="#22c55e" stroke-width="2" opacity=".9"/><circle cx="180" cy="118" r="55" fill="none" stroke="#38bdf8" stroke-width="2" opacity=".9"/><circle cx="180" cy="118" r="38" fill="none" stroke="#fbbf24" stroke-width="2" opacity=".9"/><circle cx="180" cy="118" r="20" fill="none" stroke="#f472b6" stroke-width="2" opacity=".9"/><circle cx="230.0" cy="118.0" r="7" fill="#a3e635" opacity=".85"/><circle cx="215.4" cy="153.4" r="7" fill="#a3e635" opacity=".85"/><circle cx="180.0" cy="168.0" r="7" fill="#a3e635" opacity=".85"/><circle cx="144.6" cy="153.4" r="7" fill="#a3e635" opacity=".85"/><circle cx="130.0" cy="118.0" r="7" fill="#a3e635" opacity=".85"/><circle cx="144.6" cy="82.6" r="7" fill="#a3e635" opacity=".85"/><circle cx="180.0" cy="68.0" r="7" fill="#a3e635" opacity=".85"/><circle cx="215.4" cy="82.6" r="7" fill="#a3e635" opacity=".85"/>
    <circle cx="180" cy="118" r="22" fill="#0f172a" stroke="#f472b6" stroke-width="2"/>
    <text x="180" y="122" text-anchor="middle" fill="#f9a8d4" font-size="10" font-family="Noto Sans Bengali, Arial">বৃহৎ মজ্জা</text>
    <text x="180" y="196" text-anchor="middle" fill="#bbf7d0" font-size="10" font-family="Noto Sans Bengali, Arial">Poaceae / একবীজপত্রী মূলের অন্তর্গঠন</text>
  </g>
  
</svg>