<svg width="100%" height="100%" viewBox="0 0 360 220" xmlns="http://www.w3.org/2000/svg" role="img" aria-label="উদ্ভিদ টিস্যু কালচার">
  <defs>
    <linearGradient id="bg" x1="0" y1="0" x2="1" y2="1">
      <stop offset="0%" stop-color="#07111f"/>
      <stop offset="100%" stop-color="#0f172a"/>
    </linearGradient>
    <filter id="glow"><feGaussianBlur stdDeviation="2.2" result="b"/><feMerge><feMergeNode in="b"/><feMergeNode in="SourceGraphic"/></feMerge></filter>
    <marker id="arrow" markerWidth="8" markerHeight="8" refX="7" refY="3" orient="auto"><path d="M0,0 L0,6 L8,3 z" fill="#67e8f9"/></marker>
  </defs>
  <rect width="360" height="220" rx="18" fill="url(#bg)"/>
  <rect x="10" y="10" width="340" height="200" rx="14" fill="#ffffff" opacity=".035" stroke="#38bdf8" stroke-opacity=".24"/>
  <text x="180" y="28" text-anchor="middle" fill="#e0f2fe" font-size="12.5" font-weight="700" font-family="Noto Sans Bengali, Arial, sans-serif">উদ্ভিদ টিস্যু কালচার</text>
  <text x="180" y="44" text-anchor="middle" fill="#93c5fd" font-size="9.5" font-family="Noto Sans Bengali, Arial, sans-serif">In vitro plant regeneration</text>
  
  <g filter="url(#glow)">
    <path d="M120 70 L100 165 Q100 183 120 183 L240 183 Q260 183 260 165 L240 70 Z" fill="#10243a" stroke="#38bdf8" stroke-width="2"/>
    <line x1="120" y1="70" x2="240" y2="70" stroke="#93c5fd" stroke-width="3"/>
    <path d="M180 165 C170 135,180 105,198 90" fill="none" stroke="#22c55e" stroke-width="3"/>
    <path d="M180 128 C155 124,145 110,138 96" fill="none" stroke="#22c55e" stroke-width="2"/>
    <path d="M184 120 C210 115,220 100,230 88" fill="none" stroke="#22c55e" stroke-width="2"/>
    <text x="180" y="198" text-anchor="middle" fill="#bfdbfe" font-size="10" font-family="Noto Sans Bengali, Arial">Tissue culture: রোগমুক্ত উদ্ভিদ / সোমাক্লোনাল ভ্যারিয়েশন</text>
  </g>
  
</svg>