<svg width="100%" height="100%" viewBox="0 0 360 220" xmlns="http://www.w3.org/2000/svg" role="img" aria-label="অঙ্গাণু: গলজি বডি">
  <defs>
    <linearGradient id="bg" x1="0" y1="0" x2="1" y2="1">
      <stop offset="0%" stop-color="#07111f"/>
      <stop offset="100%" stop-color="#0f172a"/>
    </linearGradient>
    <filter id="glow"><feGaussianBlur stdDeviation="2.2" result="b"/><feMerge><feMergeNode in="b"/><feMergeNode in="SourceGraphic"/></feMerge></filter>
    <marker id="arrow" markerWidth="8" markerHeight="8" refX="7" refY="3" orient="auto"><path d="M0,0 L0,6 L8,3 z" fill="#67e8f9"/></marker>
  </defs>
  <rect width="360" height="220" rx="18" fill="url(#bg)"/>
  <rect x="10" y="10" width="340" height="200" rx="14" fill="#ffffff" opacity=".035" stroke="#38bdf8" stroke-opacity=".24"/>
  <text x="180" y="28" text-anchor="middle" fill="#e0f2fe" font-size="12.5" font-weight="700" font-family="Noto Sans Bengali, Arial, sans-serif">অঙ্গাণু: গলজি বডি</text>
  <text x="180" y="44" text-anchor="middle" fill="#93c5fd" font-size="9.5" font-family="Noto Sans Bengali, Arial, sans-serif">Stacked cisternae + vesicles</text>
  
  <g filter="url(#glow)">
    <g fill="none" stroke="#38bdf8" stroke-width="4" stroke-linecap="round">
      <path d="M120 90 C155 76, 207 76, 240 90"/>
      <path d="M106 108 C150 95, 214 95, 254 108"/>
      <path d="M100 126 C152 113, 210 113, 260 126"/>
      <path d="M115 144 C154 133, 206 133, 245 144"/>
    </g>
    <circle cx="94" cy="108" r="7" fill="#f472b6"/>
    <circle cx="268" cy="126" r="7" fill="#f472b6"/>
    <circle cx="105" cy="150" r="5" fill="#fbbf24"/>
    <text x="180" y="72" text-anchor="middle" fill="#e0f2fe" font-size="13" font-weight="700" font-family="Noto Sans Bengali, Arial">গলজি বডি</text>
    <text x="180" y="178" text-anchor="middle" fill="#bfdbfe" font-size="10" font-family="Noto Sans Bengali, Arial">কোষপ্লেট/অ্যাক্রোজোম সৃষ্টিতে ভূমিকা</text>
  </g>
  
</svg>