<svg width="100%" height="100%" viewBox="0 0 360 220" xmlns="http://www.w3.org/2000/svg" role="img" aria-label="তরঙ্গ চিত্র">
  <defs>
    <linearGradient id="bg" x1="0" y1="0" x2="1" y2="1">
      <stop offset="0%" stop-color="#07111f"/>
      <stop offset="100%" stop-color="#0f172a"/>
    </linearGradient>
    <filter id="glow"><feGaussianBlur stdDeviation="2.2" result="b"/><feMerge><feMergeNode in="b"/><feMergeNode in="SourceGraphic"/></feMerge></filter>
    <marker id="arrow" markerWidth="8" markerHeight="8" refX="7" refY="3" orient="auto"><path d="M0,0 L0,6 L8,3 z" fill="#67e8f9"/></marker>
  </defs>
  <rect width="360" height="220" rx="18" fill="url(#bg)"/>
  <rect x="10" y="10" width="340" height="200" rx="14" fill="#ffffff" opacity=".035" stroke="#38bdf8" stroke-opacity=".24"/>
  <text x="180" y="28" text-anchor="middle" fill="#e0f2fe" font-size="12.5" font-weight="700" font-family="Noto Sans Bengali, Arial, sans-serif">তরঙ্গ চিত্র</text>
  <text x="180" y="44" text-anchor="middle" fill="#93c5fd" font-size="9.5" font-family="Noto Sans Bengali, Arial, sans-serif">Amplitude, wavelength and phase</text>
  <g filter="url(#glow)">
    <line x1="45" y1="115" x2="320" y2="115" stroke="#94a3b8" stroke-width="1.5"/>
    <path d="M55 115 C80 55,120 55,145 115 C170 175,210 175,235 115 C260 55,300 55,325 115" fill="none" stroke="#22d3ee" stroke-width="4"/>
    <line x1="100" y1="115" x2="100" y2="60" stroke="#fbbf24" stroke-width="2" stroke-dasharray="5 4"/>
    <text x="75" y="89" fill="#fde68a" font-size="10" font-family="Noto Sans Bengali, Arial">বিস্তার</text>
    <line x1="100" y1="190" x2="235" y2="190" stroke="#a3e635" stroke-width="2"/>
    <text x="167" y="205" text-anchor="middle" fill="#bbf7d0" font-size="10" font-family="Noto Sans Bengali, Arial">তরঙ্গদৈর্ঘ্য</text>
  </g>
  
</svg>