<svg width="100%" height="100%" viewBox="0 0 360 220" xmlns="http://www.w3.org/2000/svg" role="img" aria-label="অঙ্গাণু: মাইটোকন্ড্রিয়া ও ক্লোরোপ্লাস্ট">
  <defs>
    <linearGradient id="bg" x1="0" y1="0" x2="1" y2="1">
      <stop offset="0%" stop-color="#07111f"/>
      <stop offset="100%" stop-color="#0f172a"/>
    </linearGradient>
    <filter id="glow"><feGaussianBlur stdDeviation="2.2" result="b"/><feMerge><feMergeNode in="b"/><feMergeNode in="SourceGraphic"/></feMerge></filter>
    <marker id="arrow" markerWidth="8" markerHeight="8" refX="7" refY="3" orient="auto"><path d="M0,0 L0,6 L8,3 z" fill="#67e8f9"/></marker>
  </defs>
  <rect width="360" height="220" rx="18" fill="url(#bg)"/>
  <rect x="10" y="10" width="340" height="200" rx="14" fill="#ffffff" opacity=".035" stroke="#38bdf8" stroke-opacity=".24"/>
  <text x="180" y="28" text-anchor="middle" fill="#e0f2fe" font-size="12.5" font-weight="700" font-family="Noto Sans Bengali, Arial, sans-serif">অঙ্গাণু: মাইটোকন্ড্রিয়া ও ক্লোরোপ্লাস্ট</text>
  <text x="180" y="44" text-anchor="middle" fill="#93c5fd" font-size="9.5" font-family="Noto Sans Bengali, Arial, sans-serif">দ্বি-স্তরী ঝিল্লি + শক্তি রূপান্তর</text>
  
  <g>
    <ellipse cx="105" cy="120" rx="48" ry="31" fill="#123b54" stroke="#22d3ee" stroke-width="2.5"/>
    <ellipse cx="105" cy="120" rx="40" ry="24" fill="none" stroke="#7dd3fc" stroke-width="1.5" opacity=".7"/>
    <path d="M72 122 C88 104, 100 136, 118 115 C132 99, 143 130, 154 114" fill="none" stroke="#fbbf24" stroke-width="2.3"/>
    <text x="105" y="164" text-anchor="middle" fill="#e0f2fe" font-size="11" font-family="Noto Sans Bengali, Arial">মাইটোকন্ড্রিয়া</text>
    <ellipse cx="255" cy="120" rx="52" ry="33" fill="#064e3b" stroke="#34d399" stroke-width="2.5"/>
    <ellipse cx="255" cy="120" rx="44" ry="26" fill="none" stroke="#86efac" stroke-width="1.5" opacity=".75"/>
    <g stroke="#bef264" stroke-width="3" stroke-linecap="round">
      <line x1="220" y1="108" x2="290" y2="108"/><line x1="220" y1="120" x2="290" y2="120"/><line x1="220" y1="132" x2="290" y2="132"/>
    </g>
    <text x="255" y="164" text-anchor="middle" fill="#dcfce7" font-size="11" font-family="Noto Sans Bengali, Arial">ক্লোরোপ্লাস্ট</text>
    <text x="180" y="73" text-anchor="middle" fill="#fde68a" font-size="11" font-family="Noto Sans Bengali, Arial">দু’টিই দ্বি-স্তরী ঝিল্লি-বেষ্টিত</text>
  </g>
  
</svg>