<svg width="100%" height="100%" viewBox="0 0 360 220" xmlns="http://www.w3.org/2000/svg" role="img" aria-label="ভাজক টিস্যুর কোষ">
  <defs>
    <linearGradient id="bg" x1="0" y1="0" x2="1" y2="1">
      <stop offset="0%" stop-color="#07111f"/>
      <stop offset="100%" stop-color="#0f172a"/>
    </linearGradient>
    <filter id="glow"><feGaussianBlur stdDeviation="2.2" result="b"/><feMerge><feMergeNode in="b"/><feMergeNode in="SourceGraphic"/></feMerge></filter>
    <marker id="arrow" markerWidth="8" markerHeight="8" refX="7" refY="3" orient="auto"><path d="M0,0 L0,6 L8,3 z" fill="#67e8f9"/></marker>
  </defs>
  <rect width="360" height="220" rx="18" fill="url(#bg)"/>
  <rect x="10" y="10" width="340" height="200" rx="14" fill="#ffffff" opacity=".035" stroke="#38bdf8" stroke-opacity=".24"/>
  <text x="180" y="28" text-anchor="middle" fill="#e0f2fe" font-size="12.5" font-weight="700" font-family="Noto Sans Bengali, Arial, sans-serif">ভাজক টিস্যুর কোষ</text>
  <text x="180" y="44" text-anchor="middle" fill="#93c5fd" font-size="9.5" font-family="Noto Sans Bengali, Arial, sans-serif">ছোট কোষ, ঘন সাইটোপ্লাজম, বড় নিউক্লিয়াস</text>
  
  <g filter="url(#glow)"><rect x="95" y="80" width="28" height="22" rx="5" fill="#064e3b" stroke="#34d399" stroke-width="1.5"/><circle cx="109" cy="91" r="4" fill="#a3e635"/><rect x="130" y="80" width="28" height="22" rx="5" fill="#064e3b" stroke="#34d399" stroke-width="1.5"/><circle cx="144" cy="91" r="4" fill="#a3e635"/><rect x="165" y="80" width="28" height="22" rx="5" fill="#064e3b" stroke="#34d399" stroke-width="1.5"/><circle cx="179" cy="91" r="4" fill="#a3e635"/><rect x="200" y="80" width="28" height="22" rx="5" fill="#064e3b" stroke="#34d399" stroke-width="1.5"/><circle cx="214" cy="91" r="4" fill="#a3e635"/><rect x="235" y="80" width="28" height="22" rx="5" fill="#064e3b" stroke="#34d399" stroke-width="1.5"/><circle cx="249" cy="91" r="4" fill="#a3e635"/><rect x="111" y="110" width="28" height="22" rx="5" fill="#064e3b" stroke="#34d399" stroke-width="1.5"/><circle cx="125" cy="121" r="4" fill="#a3e635"/><rect x="146" y="110" width="28" height="22" rx="5" fill="#064e3b" stroke="#34d399" stroke-width="1.5"/><circle cx="160" cy="121" r="4" fill="#a3e635"/><rect x="181" y="110" width="28" height="22" rx="5" fill="#064e3b" stroke="#34d399" stroke-width="1.5"/><circle cx="195" cy="121" r="4" fill="#a3e635"/><rect x="216" y="110" width="28" height="22" rx="5" fill="#064e3b" stroke="#34d399" stroke-width="1.5"/><circle cx="230" cy="121" r="4" fill="#a3e635"/><rect x="251" y="110" width="28" height="22" rx="5" fill="#064e3b" stroke="#34d399" stroke-width="1.5"/><circle cx="265" cy="121" r="4" fill="#a3e635"/><rect x="95" y="140" width="28" height="22" rx="5" fill="#064e3b" stroke="#34d399" stroke-width="1.5"/><circle cx="109" cy="151" r="4" fill="#a3e635"/><rect x="130" y="140" width="28" height="22" rx="5" fill="#064e3b" stroke="#34d399" stroke-width="1.5"/><circle cx="144" cy="151" r="4" fill="#a3e635"/><rect x="165" y="140" width="28" height="22" rx="5" fill="#064e3b" stroke="#34d399" stroke-width="1.5"/><circle cx="179" cy="151" r="4" fill="#a3e635"/><rect x="200" y="140" width="28" height="22" rx="5" fill="#064e3b" stroke="#34d399" stroke-width="1.5"/><circle cx="214" cy="151" r="4" fill="#a3e635"/><rect x="235" y="140" width="28" height="22" rx="5" fill="#064e3b" stroke="#34d399" stroke-width="1.5"/><circle cx="249" cy="151" r="4" fill="#a3e635"/>
    <text x="180" y="178" text-anchor="middle" fill="#dcfce7" font-size="11" font-family="Noto Sans Bengali, Arial">Q: ভাজক টিস্যু — গহ্বর নেই, বিপাক হার বেশি</text>
  </g>
  
</svg>