<svg width="100%" height="100%" viewBox="0 0 360 220" xmlns="http://www.w3.org/2000/svg" role="img" aria-label="ভাইরাস/ব্যাকটেরিওফাজ">
  <defs>
    <linearGradient id="bg" x1="0" y1="0" x2="1" y2="1">
      <stop offset="0%" stop-color="#07111f"/>
      <stop offset="100%" stop-color="#0f172a"/>
    </linearGradient>
    <filter id="glow"><feGaussianBlur stdDeviation="2.2" result="b"/><feMerge><feMergeNode in="b"/><feMergeNode in="SourceGraphic"/></feMerge></filter>
    <marker id="arrow" markerWidth="8" markerHeight="8" refX="7" refY="3" orient="auto"><path d="M0,0 L0,6 L8,3 z" fill="#67e8f9"/></marker>
  </defs>
  <rect width="360" height="220" rx="18" fill="url(#bg)"/>
  <rect x="10" y="10" width="340" height="200" rx="14" fill="#ffffff" opacity=".035" stroke="#38bdf8" stroke-opacity=".24"/>
  <text x="180" y="28" text-anchor="middle" fill="#e0f2fe" font-size="12.5" font-weight="700" font-family="Noto Sans Bengali, Arial, sans-serif">ভাইরাস/ব্যাকটেরিওফাজ</text>
  <text x="180" y="44" text-anchor="middle" fill="#93c5fd" font-size="9.5" font-family="Noto Sans Bengali, Arial, sans-serif">অকোষীয়, আণুবীক্ষণিক গঠন</text>
  
  <g filter="url(#glow)">
    <polygon points="180,65 214,85 214,125 180,145 146,125 146,85" fill="#1e293b" stroke="#22d3ee" stroke-width="2.5"/>
    <path d="M164 92 C178 80,195 92,186 110 C176 128,159 113,164 92" fill="none" stroke="#f472b6" stroke-width="2"/>
    <rect x="172" y="145" width="16" height="45" rx="4" fill="#334155" stroke="#67e8f9" stroke-width="2"/>
    <line x1="180" y1="190" x2="135" y2="205" stroke="#67e8f9" stroke-width="2"/>
    <line x1="180" y1="190" x2="225" y2="205" stroke="#67e8f9" stroke-width="2"/>
    <line x1="180" y1="190" x2="180" y2="210" stroke="#67e8f9" stroke-width="2"/>
    <text x="180" y="55" text-anchor="middle" fill="#e0f2fe" font-size="12" font-family="Noto Sans Bengali, Arial">ব্যাকটেরিওফাজ</text>
    <text x="233" y="107" fill="#f9a8d4" font-size="9" font-family="Noto Sans Bengali, Arial">DNA মাথায়</text>
    <text x="228" y="178" fill="#bae6fd" font-size="9" font-family="Noto Sans Bengali, Arial">লেজে DNA নেই</text>
  </g>
  
</svg>